<?xml version="1.0" standalone="no"?>
<!DOCTYPE svg PUBLIC "-//W3C//DTD SVG 20010904//EN"
 "http://www.w3.org/TR/2001/REC-SVG-20010904/DTD/svg10.dtd">
<svg version="1.0" xmlns="http://www.w3.org/2000/svg"
 width="916.000000pt" height="919.000000pt" viewBox="0 0 916.000000 919.000000"
 preserveAspectRatio="xMidYMid meet">

<g transform="translate(0.000000,919.000000) scale(0.100000,-0.100000)"
fill="#000000" stroke="none">
<path d="M0 4605 l0 -4585 4580 0 4580 0 0 4585 0 4585 -4580 0 -4580 0 0
-4585z m7743 4477 c445 -95 815 -347 1061 -725 147 -225 234 -487 256 -770 12
-155 12 -5724 0 -5898 -29 -407 -192 -760 -487 -1053 -128 -127 -246 -211
-418 -295 -220 -109 -380 -153 -620 -172 -96 -7 -1061 -9 -3045 -7 l-2905 4
-111 22 c-353 68 -664 236 -900 485 -217 228 -349 480 -426 814 l-23 98 -3
2990 c-2 2148 0 3017 8 3085 78 666 559 1224 1203 1395 210 56 27 53 3287 52
l3015 -2 108 -23z"/>
<path d="M4562 6418 c-33 -17 -44 -70 -40 -202 3 -110 5 -119 27 -137 31 -26
57 -24 86 6 24 23 25 29 25 158 0 114 -3 138 -17 155 -23 26 -52 33 -81 20z"/>
<path d="M3722 6180 c-12 -5 -27 -22 -33 -37 -11 -29 -2 -52 80 -192 55 -93
67 -104 105 -97 36 7 56 30 56 64 0 38 -128 252 -157 263 -13 5 -25 9 -26 8
-1 0 -12 -4 -25 -9z"/>
<path d="M5399 6177 c-9 -7 -46 -65 -84 -131 -58 -102 -67 -122 -59 -144 13
-37 55 -59 86 -45 29 13 158 231 158 267 0 27 -42 66 -69 66 -9 0 -23 -6 -32
-13z"/>
<path d="M4510 5923 c-482 -41 -891 -386 -1010 -854 -22 -84 -42 -282 -33
-320 3 -13 13 -30 21 -36 12 -10 248 -13 1103 -13 1175 0 1107 -3 1124 50 4
11 -1 73 -10 138 -50 350 -241 659 -525 847 -78 51 -195 111 -267 136 -109 37
-295 62 -403 52z m308 -168 c219 -59 400 -186 545 -380 112 -150 207 -390 207
-521 l0 -24 -985 0 c-931 0 -985 1 -985 18 0 9 7 58 15 109 32 195 120 372
259 521 156 167 378 279 606 306 84 10 247 -4 338 -29z"/>
<path d="M3141 5571 c-26 -26 -27 -72 -3 -94 34 -31 227 -137 249 -137 30 0
63 34 63 64 0 36 -25 59 -134 121 -120 68 -146 75 -175 46z"/>
<path d="M5870 5529 c-142 -81 -163 -109 -122 -160 31 -37 67 -29 192 45 63
38 118 73 122 79 24 38 -13 97 -60 97 -15 0 -74 -28 -132 -61z"/>
<path d="M2954 4816 c-35 -15 -47 -46 -34 -81 15 -38 41 -45 180 -45 126 0
132 1 155 25 14 13 25 34 25 45 0 12 -11 32 -25 45 -23 24 -30 25 -147 25 -81
-1 -134 -5 -154 -14z"/>
<path d="M5947 4823 c-27 -7 -49 -57 -37 -87 15 -39 40 -46 175 -46 155 0 185
12 185 72 0 17 -9 34 -26 47 -24 19 -39 21 -153 20 -69 -1 -134 -3 -144 -6z"/>
<path d="M2405 3836 c-48 -21 -68 -82 -43 -129 18 -35 40 -46 86 -47 60 0 92
32 92 93 0 32 -6 49 -22 64 -31 28 -76 35 -113 19z"/>
<path d="M3018 3713 c-16 -4 -18 -21 -18 -179 l0 -174 -125 0 -125 0 0 -50 0
-50 124 0 125 0 3 -432 c4 -411 5 -436 25 -492 63 -174 259 -237 480 -155 31
12 53 27 53 35 0 12 -25 70 -35 82 -2 2 -31 -6 -66 -17 -118 -39 -225 -25
-282 38 -53 59 -57 93 -57 541 l0 400 205 0 205 0 0 50 0 50 -205 0 -205 0 0
180 0 180 -42 -1 c-24 -1 -51 -3 -60 -6z"/>
<path d="M4203 3365 c-87 -24 -154 -64 -220 -130 l-63 -63 0 94 0 94 -60 0
-60 0 0 -600 0 -600 60 0 60 0 0 360 c0 224 4 379 11 412 26 124 116 239 229
292 61 29 72 31 180 31 128 0 170 -10 250 -57 64 -39 109 -95 141 -175 23 -57
24 -67 27 -460 l3 -403 60 0 59 0 0 398 c0 354 -2 405 -18 463 -44 157 -154
275 -308 330 -78 28 -274 36 -351 14z"/>
<path d="M5590 3364 c-171 -36 -327 -160 -399 -316 -52 -112 -66 -174 -65
-293 1 -171 52 -309 155 -420 72 -76 136 -119 226 -150 240 -84 534 -25 694
138 l51 52 -42 36 -42 36 -43 -41 c-85 -83 -239 -137 -391 -138 -143 0 -262
47 -352 140 -61 63 -117 169 -128 245 l-6 47 541 0 541 0 0 93 c-1 182 -51
318 -156 423 -136 136 -369 195 -584 148z m326 -122 c171 -54 294 -214 294
-383 l0 -49 -480 0 -480 0 0 23 c0 76 71 226 140 297 50 51 167 115 240 130
66 14 216 4 286 -18z"/>
<path d="M6935 3370 c-151 -27 -258 -99 -306 -204 -29 -65 -26 -178 7 -245 52
-104 152 -149 446 -202 248 -44 320 -76 359 -157 28 -57 21 -129 -17 -184 -34
-48 -124 -94 -214 -108 -201 -31 -387 18 -509 137 l-55 53 -36 -32 c-19 -18
-39 -36 -44 -40 -16 -13 103 -125 172 -161 123 -64 198 -81 357 -80 124 0 149
3 220 27 181 61 265 161 265 316 0 75 -26 142 -76 194 -57 60 -156 96 -389
141 -220 44 -283 64 -336 112 -109 99 -52 247 116 303 52 17 87 21 192 21 161
-1 234 -22 333 -95 l34 -26 38 37 38 37 -26 27 c-33 34 -140 91 -214 114 -65
19 -280 29 -355 15z"/>
<path d="M8143 3370 c-173 -32 -295 -130 -323 -263 -21 -104 23 -221 103 -275
82 -55 136 -71 367 -113 249 -44 322 -76 361 -157 27 -55 22 -113 -15 -176
-21 -35 -39 -51 -89 -75 -196 -96 -483 -53 -636 96 l-55 53 -36 -32 c-19 -18
-39 -36 -44 -40 -5 -4 18 -34 50 -68 65 -68 172 -128 284 -157 90 -23 292 -23
380 1 196 53 288 149 298 306 6 98 -20 162 -90 225 -66 59 -126 80 -374 130
-226 46 -290 68 -341 117 -70 68 -66 165 11 236 67 61 148 84 301 83 159 0
237 -22 335 -95 l34 -26 38 37 38 37 -26 27 c-33 34 -140 91 -214 114 -65 20
-280 29 -357 15z"/>
<path d="M2380 2765 l0 -605 65 0 65 0 0 605 0 605 -65 0 -65 0 0 -605z"/>
<path d="M393 3353 c3 -5 96 -262 207 -573 111 -311 207 -577 212 -592 10 -27
13 -28 76 -28 l67 0 111 303 c61 166 138 386 170 489 32 103 62 182 65 175 4
-7 34 -102 68 -212 55 -178 204 -598 252 -712 l18 -43 64 0 65 0 45 128 c25
70 116 325 201 567 86 242 161 450 166 463 17 40 13 43 -57 40 l-66 -3 -177
-524 c-171 -506 -177 -523 -189 -490 -7 19 -82 237 -168 484 -85 248 -162 469
-170 493 -14 41 -16 42 -58 42 -40 0 -44 -3 -55 -32 -6 -18 -81 -235 -167
-483 -85 -247 -162 -470 -171 -494 l-15 -44 -149 439 c-82 241 -163 478 -180
527 l-31 87 -69 0 c-38 0 -67 -3 -65 -7z"/>
</g>
</svg>
