<?xml version="1.0" standalone="no"?>
<!DOCTYPE svg PUBLIC "-//W3C//DTD SVG 20010904//EN"
 "http://www.w3.org/TR/2001/REC-SVG-20010904/DTD/svg10.dtd">
<svg version="1.0" xmlns="http://www.w3.org/2000/svg"
 width="601.000000pt" height="460.000000pt" viewBox="0 0 601.000000 460.000000"
 preserveAspectRatio="xMidYMid meet">

<g transform="translate(0.000000,460.000000) scale(0.100000,-0.100000)"
fill="#000000" stroke="none">
<path d="M2983 3708 c-57 -15 -66 -41 -71 -211 -6 -191 7 -283 43 -314 14 -13
39 -23 55 -23 16 0 41 10 55 23 36 30 48 120 44 313 -4 164 -6 171 -66 205
-21 12 -36 14 -60 7z"/>
<path d="M4255 3350 c-32 -13 -69 -58 -122 -150 -74 -128 -114 -214 -120 -258
-5 -34 -2 -41 27 -65 43 -36 88 -36 122 1 75 81 234 358 223 391 -7 24 -80 91
-98 90 -6 0 -21 -4 -32 -9z"/>
<path d="M1680 3330 c-42 -42 -46 -87 -13 -155 9 -16 49 -86 90 -155 101 -170
144 -199 212 -142 46 38 45 82 -5 181 -55 107 -132 232 -157 254 -47 41 -97
47 -127 17z"/>
<path d="M2905 2954 c-338 -25 -662 -149 -925 -353 -120 -92 -273 -250 -353
-361 -90 -127 -197 -345 -242 -494 -48 -162 -67 -286 -69 -448 -1 -186 -10
-178 206 -189 245 -12 2777 -11 2940 1 161 13 214 26 240 61 19 26 19 28 -1
165 -34 237 -74 379 -155 563 -155 350 -441 663 -773 849 -159 89 -379 168
-533 191 -77 12 -265 20 -335 15z m226 -215 c187 -19 311 -55 471 -136 293
-149 580 -437 725 -728 71 -141 153 -419 153 -516 l0 -36 -332 -6 c-182 -4
-844 -7 -1471 -7 l-1140 0 7 110 c11 188 49 325 138 505 105 210 232 367 402
494 347 260 670 359 1047 320z"/>
<path d="M824 2426 c-47 -47 -48 -99 -1 -143 50 -47 116 -88 228 -143 150 -73
221 -66 236 23 5 35 2 41 -39 81 -64 61 -340 216 -385 216 -3 0 -20 -15 -39
-34z"/>
<path d="M5054 2426 c-89 -43 -217 -119 -271 -162 -49 -40 -60 -77 -39 -128
28 -68 90 -62 256 26 182 97 230 138 230 199 0 30 -31 78 -55 85 -11 3 -27 7
-35 10 -9 2 -47 -11 -86 -30z"/>
<path d="M575 1293 c-59 -6 -99 -41 -99 -87 0 -81 68 -106 294 -106 147 0 215
15 243 52 23 31 18 83 -12 120 -19 22 -23 23 -203 24 -100 1 -201 -1 -223 -3z"/>
<path d="M5093 1293 c-74 -8 -122 -78 -92 -132 28 -50 57 -56 271 -56 184 0
198 1 225 21 60 45 65 107 10 147 -23 18 -45 20 -199 22 -95 2 -192 1 -215 -2z"/>
</g>
</svg>
