<?xml version="1.0" standalone="no"?>
<!DOCTYPE svg PUBLIC "-//W3C//DTD SVG 20010904//EN"
 "http://www.w3.org/TR/2001/REC-SVG-20010904/DTD/svg10.dtd">
<svg version="1.0" xmlns="http://www.w3.org/2000/svg"
 width="816.000000pt" height="736.000000pt" viewBox="0 0 816.000000 736.000000"
 preserveAspectRatio="xMidYMid meet">

<g transform="translate(0.000000,736.000000) scale(0.100000,-0.100000)"
fill="#000000" stroke="none">
<path d="M4070 5013 c-26 -10 -30 -26 -30 -135 0 -113 9 -138 50 -138 41 0 50
25 50 140 0 101 -2 110 -22 124 -24 17 -25 17 -48 9z"/>
<path d="M3437 4832 c-10 -2 -22 -15 -28 -29 -8 -21 -2 -39 42 -114 58 -102
78 -118 115 -94 34 22 30 48 -25 144 -47 83 -68 101 -104 93z"/>
<path d="M4698 4828 c-27 -22 -108 -171 -108 -201 0 -32 39 -54 69 -37 18 9
121 178 121 199 0 15 -37 51 -53 51 -7 0 -20 -6 -29 -12z"/>
<path d="M3925 4623 c-256 -54 -476 -222 -594 -453 -49 -95 -82 -216 -88 -325
-5 -87 -3 -103 11 -118 16 -16 77 -17 835 -17 951 0 859 -12 847 111 -39 394
-330 725 -706 805 -83 18 -216 16 -305 -3z m324 -109 c206 -47 432 -246 520
-459 33 -79 67 -222 56 -233 -4 -4 -336 -7 -738 -7 l-732 0 2 70 c3 113 69
271 160 382 81 100 237 201 367 240 114 34 236 36 365 7z"/>
<path d="M3004 4382 c-22 -14 -32 -45 -22 -67 13 -29 173 -117 206 -113 31 4
47 27 39 59 -5 17 -32 38 -100 77 -97 54 -105 57 -123 44z"/>
<path d="M5051 4341 c-91 -52 -106 -69 -97 -107 11 -41 47 -41 123 2 109 59
123 72 123 104 0 29 -23 51 -52 49 -7 0 -51 -22 -97 -48z"/>
<path d="M2836 3794 c-21 -21 -20 -47 2 -67 26 -24 223 -25 246 -1 19 18 20
38 6 65 -10 17 -22 19 -125 19 -90 0 -117 -3 -129 -16z"/>
<path d="M5096 3794 c-9 -8 -16 -24 -16 -34 0 -41 25 -50 139 -50 92 0 110 3
124 18 21 23 22 46 1 66 -12 13 -39 16 -124 16 -85 0 -112 -3 -124 -16z"/>
<path d="M2443 3070 c-46 -19 -57 -83 -20 -118 46 -44 120 -15 120 47 0 52
-53 90 -100 71z"/>
<path d="M2890 2845 l0 -135 -95 0 -95 0 0 -40 0 -40 95 0 95 0 0 -313 c0
-343 6 -386 57 -448 67 -79 211 -98 339 -44 l34 14 -17 36 c-19 39 -22 40 -78
20 -97 -35 -185 -9 -222 65 -22 43 -23 53 -23 357 l0 313 155 0 155 0 0 40 0
40 -155 0 -155 0 0 135 0 135 -45 0 -45 0 0 -135z"/>
<path d="M4887 2718 c-264 -30 -444 -295 -386 -570 39 -183 180 -316 370 -348
149 -25 331 26 429 121 l43 42 -32 29 -32 29 -46 -40 c-64 -57 -138 -82 -255
-89 -84 -4 -105 -2 -164 19 -112 39 -202 145 -220 258 l-7 41 407 0 406 0 0
78 c0 96 -22 182 -61 244 -91 141 -253 208 -452 186z m137 -88 c166 -24 286
-148 286 -297 l0 -33 -360 0 c-408 0 -375 -8 -343 86 21 63 37 89 87 142 50
53 117 89 188 101 72 12 65 12 142 1z"/>
<path d="M3773 2706 c-60 -20 -107 -51 -153 -103 l-40 -46 0 77 0 76 -45 0
-45 0 0 -450 0 -450 45 0 45 0 0 248 c0 137 5 275 11 307 14 78 48 143 97 187
111 100 322 105 432 10 87 -74 100 -138 100 -489 l0 -263 46 0 45 0 -3 318 -3
317 -33 67 c-40 81 -112 149 -192 180 -69 27 -243 35 -307 14z"/>
<path d="M5823 2705 c-153 -42 -222 -126 -210 -258 11 -121 84 -169 332 -218
243 -47 305 -83 305 -173 0 -196 -388 -239 -568 -63 l-42 41 -32 -32 -32 -32
20 -27 c34 -45 124 -102 199 -126 90 -28 261 -30 346 -4 135 41 202 121 201
241 -1 74 -16 110 -67 155 -51 44 -90 58 -255 92 -193 40 -216 46 -260 75 -46
30 -65 71 -57 121 7 43 37 77 92 106 32 17 63 22 151 25 125 5 194 -10 258
-53 46 -31 56 -31 79 1 18 23 18 27 3 43 -25 27 -111 72 -170 87 -65 18 -226
17 -293 -1z"/>
<path d="M6735 2705 c-27 -8 -53 -14 -56 -15 -3 0 -27 -14 -52 -31 -80 -53
-120 -153 -96 -241 26 -100 101 -145 300 -183 242 -46 313 -78 329 -151 16
-72 -17 -132 -94 -168 -141 -67 -353 -34 -469 73 l-44 40 -34 -29 -34 -30 61
-57 c100 -96 255 -138 422 -116 199 26 304 129 289 282 -13 125 -88 175 -338
225 -244 49 -300 81 -301 171 -1 58 22 91 88 125 40 21 66 26 149 29 121 4
185 -9 257 -52 l53 -33 23 27 c12 15 22 31 22 36 0 14 -92 70 -145 89 -68 24
-261 29 -330 9z"/>
<path d="M931 2683 c6 -16 59 -165 119 -333 59 -168 127 -358 150 -422 l43
-118 52 0 52 0 76 203 c42 111 99 273 127 360 29 87 54 157 56 155 2 -3 31
-90 64 -194 32 -104 88 -263 122 -354 l63 -165 55 0 54 0 71 200 c39 110 109
306 155 435 45 129 85 241 87 248 4 9 -10 12 -48 11 l-54 0 -130 -389 c-71
-215 -132 -390 -135 -390 -5 0 -85 225 -207 588 l-66 193 -35 -3 -35 -3 -51
-150 c-29 -82 -90 -259 -136 -393 -78 -227 -84 -242 -95 -215 -6 15 -67 193
-136 396 l-124 367 -52 0 -53 0 11 -27z"/>
<path d="M2420 2260 l0 -450 50 0 50 0 0 450 0 450 -50 0 -50 0 0 -450z"/>
</g>
</svg>
